<svg width="64" height="112" viewBox="0 0 64 112" fill="none" xmlns="http://www.w3.org/2000/svg">
  <ellipse cx="32" cy="14" rx="7" ry="13" fill="#111827"/>
  <ellipse cx="32" cy="98" rx="7" ry="13" fill="#111827"/>
  <rect x="28" y="18" width="8" height="76" rx="4" fill="#1E40AF"/>
  <rect x="25" y="22" width="14" height="17" rx="5" fill="#2563EB"/>
  <rect x="25" y="73" width="14" height="17" rx="5" fill="#2563EB"/>
  <path d="M18 35C22.5 31.5 27.5 30 32 30C36.5 30 41.5 31.5 46 35" stroke="#93C5FD" stroke-width="5" stroke-linecap="round"/>
  <circle cx="17" cy="36" r="5.5" fill="#F2B48F"/>
  <circle cx="47" cy="36" r="5.5" fill="#F2B48F"/>
  <path d="M22 43C18 50 17 58 19 65C21 74 26 80 32 80C38 80 43 74 45 65C47 58 46 50 42 43" fill="#2563EB"/>
  <path d="M22 43C19 51 18 58 20 66" stroke="#1D4ED8" stroke-width="6" stroke-linecap="round"/>
  <path d="M42 43C45 51 46 58 44 66" stroke="#1D4ED8" stroke-width="6" stroke-linecap="round"/>
  <circle cx="32" cy="52" r="12" fill="#A8552F"/>
  <path d="M24 51C25 43 30 38 37 41C43 44 44 52 40 58C35 55 30 54 24 51Z" fill="#7C2D12"/>
  <rect x="23" y="78" width="7" height="22" rx="4" transform="rotate(12 23 78)" fill="#312E81"/>
  <rect x="34" y="78" width="7" height="22" rx="4" transform="rotate(-12 34 78)" fill="#312E81"/>
  <circle cx="32" cy="39" r="4" fill="#60A5FA"/>
</svg>
